Coordinates
version=1
nRows=22
nColumns=24
inDegrees=yes

Units are S.I. units (second, meters, Newtons, ...)
Angles are in degrees.

endheader
time	pelvis_tilt	pelvis_list	pelvis_rotation	pelvis_tx	pelvis_ty	pelvis_tz	hip_flexion_r	hip_adduction_r	hip_rotation_r	knee_angle_r	ankle_angle_r	subtalar_angle_r	mtp_angle_r	hip_flexion_l	hip_adduction_l	hip_rotation_l	knee_angle_l	ankle_angle_l	subtalar_angle_l	mtp_angle_l	lumbar_extension	lumbar_bending	lumbar_rotation
      1.36000000	     23.25775837	     -5.66722775	      6.38693844	     -0.01531444	      0.90955899	     -0.03284017	     -3.06433087	      6.71194506	     -2.29130055	    -23.15733298	     11.92732919	    -15.18418844	     19.98348786	    -32.56824505	     -4.75085488	     29.77383814	     -0.12521571	     -1.86713930	    -46.45374423	     13.16334870	    -33.87974705	      8.94511526	      0.45232694
      1.36500000	     23.25647325	     -5.60479981	      6.47672603	     -0.00921590	      0.90856210	     -0.03277153	     -3.15357087	      6.73726674	     -1.32048375	    -20.76870433	     11.28849148	    -16.42059271	     19.87978233	    -32.99140735	     -4.75951876	     29.97605278	     -0.14680992	     -1.60414149	    -46.67151777	     13.06517660	    -33.93425030	      8.97445188	      0.34865415
      1.37000000	     23.22975842	     -5.51199856	      6.56579660	     -0.00309683	      0.90750117	     -0.03271970	     -3.28108400	      6.70509907	     -0.26063344	    -18.28341521	     10.45592648	    -17.82773554	     19.95584728	    -33.36782092	     -4.72639244	     30.16535095	     -0.22348657	     -1.23141139	    -46.79008152	     13.00372018	    -33.95889874	      8.97703413	      0.22512738
      1.37500000	     23.17609323	     -5.38912994	      6.64587821	      0.00308425	      0.90635515	     -0.03263870	     -3.44455578	      6.61209807	      0.87380339	    -15.71529872	      9.47039393	    -19.39516864	     20.25364356	    -33.71094966	     -4.65644241	     30.31366798	     -0.32387179	     -0.82024154	    -46.81424364	     12.97157337	    -33.94735960	      8.94264146	      0.07351538
      1.38000000	     23.10314620	     -5.23014152	      6.71112753	      0.00931817	      0.90512457	     -0.03255544	     -3.64317709	      6.44259003	      2.06718762	    -13.09477331	      8.35606113	    -21.13076574	     20.86994708	    -34.01323294	     -4.52532870	     30.41005828	     -0.49756715	     -0.32727346	    -46.79933007	     12.96670616	    -33.91061748	      8.86860059	     -0.08579728
      1.38500000	     23.01017543	     -5.01994597	      6.77216145	      0.01559205	      0.90381252	     -0.03246602	     -3.86610018	      6.17538888	      3.28459315	    -10.45663945	      7.08149092	    -22.86716857	     21.64359729	    -34.31714670	     -4.35932518	     30.57829707	     -0.62229731	      0.12524039	    -46.69165507	     12.99938821	    -33.84908770	      8.74053913	     -0.25324090
      1.39000000	     22.85221074	     -4.72161502	      6.87016761	      0.02193402	      0.90236858	     -0.03246681	     -4.04929677	      5.76039785	      4.38268205	     -7.83232882	      5.47445229	    -25.02640656	     26.15132198	    -34.49056908	     -4.09092062	     30.75616934	     -0.91085343	      0.81858533	    -46.38547118	     13.06160234	    -33.70540986	      8.54566751	     -0.56167669
      1.39500000	     22.75965002	     -4.43068920	      6.89926389	      0.02832725	      0.90092564	     -0.03235816	     -4.28049143	      5.32199431	      5.47203099	     -5.38738251	      4.36630585	    -26.26222763	     26.12167642	    -34.81244242	     -3.82757986	     30.90058060	     -1.03708684	      1.12099546	    -46.44487868	     13.11127017	    -33.63440779	      8.32588570	     -0.73183709
      1.40000000	     22.58658156	     -4.07163197	      6.90861753	      0.03474426	      0.89935197	     -0.03221543	     -4.38729049	      4.77679842	      6.47642198	     -3.12597289	      3.25751443	    -27.50667023	     26.34895093	    -34.99702004	     -3.45541211	     30.98625957	     -1.30869536	      1.61812657	    -46.28859737	     13.25544484	    -33.47984632	      8.02195493	     -0.98052873
      1.40500000	     22.36821357	     -3.67424495	      6.88849921	      0.04120667	      0.89769899	     -0.03201727	     -4.39085905	      4.16732571	      7.37524470	     -1.09119986	      2.30578893	    -28.53254062	     27.01342241	    -35.13357271	     -3.02892877	     31.07044814	     -1.59985510	      2.13721842	    -46.01370350	     13.46819363	    -33.27453380	      7.66133740	     -1.22245230
      1.41000000	     22.19818168	     -3.30277517	      6.91872552	      0.04772678	      0.89609924	     -0.03188137	     -4.40557187	      3.59057780	      7.96651470	      0.74389849	      1.45219383	    -29.01989005	     27.54903734	    -35.30942716	     -2.65048002	     31.11185882	     -1.92126864	      2.66394779	    -45.76835716	     13.68771440	    -33.10781988	      7.35355664	     -1.48322016
      1.41500000	     21.99877507	     -2.92960500	      6.92373121	      0.05425634	      0.89446390	     -0.03170216	     -4.28127578	      3.01762915	      8.33358603	      2.21661696	      1.15791802	    -28.60727012	     27.61392623	    -35.48249897	     -2.26734002	     31.24233301	     -2.17456386	      2.94961109	    -45.84138794	     13.73787839	    -32.91027264	      7.03005926	     -1.71112353
      1.42000000	     21.82269544	     -2.58728768	      6.96781371	      0.06088672	      0.89286404	     -0.03151025	     -4.22481824	      2.50080891	      8.71807153	      3.67451294	      0.42371700	    -28.93699719	     27.99245109	    -35.63418189	     -1.92513975	     31.19509176	     -2.55965330	      3.75816399	    -45.11263044	     14.11961587	    -32.71953733	      6.75134990	     -1.94387796
      1.42500000	     21.65237539	     -2.24555157	      6.95773894	      0.06748191	      0.89130190	     -0.03120397	     -4.06631453	      2.00960173	      8.94784413	      4.76687141	      0.15067709	    -28.51768654	     28.06180032	    -35.82193780	     -1.56234475	     31.19361442	     -2.86655689	      3.98271653	    -45.14181866	     14.17417249	    -32.54475684	      6.44135919	     -2.14189834
      1.43000000	     21.49859179	     -1.96751229	      7.01115119	      0.07419504	      0.88980444	     -0.03094886	     -3.90611318	      1.62210188	      8.97471499	      5.67510753	     -0.06773547	    -27.95515036	     28.52402409	    -35.96974582	     -1.28274499	     30.98873228	     -3.32170244	      4.90128638	    -44.17842947	     14.65903063	    -32.36479118	      6.22741334	     -2.38012637
      1.43500000	     21.34952181	     -1.75092258	      6.90258945	      0.08102720	      0.88833750	     -0.03031114	     -3.67831873	      1.33669351	      9.12092811	      6.32322031	     -0.18469333	    -27.33309249	     28.86772455	    -36.16497759	     -0.99125750	     30.61187347	     -3.71041125	      5.47733053	    -43.51331424	     15.02692281	    -32.18920919	      5.97446839	     -2.38167650
      1.44000000	     21.22344290	     -1.55070324	      6.84084584	      0.08790893	      0.88695198	     -0.02969107	     -3.46276348	      1.10295541	      9.16386479	      6.79127823	     -0.21640564	    -26.61641581	     29.13187399	    -36.38413099	     -0.75537195	     30.26770989	     -4.08602853	      6.01883560	    -42.79154927	     15.37811437	    -32.02587091	      5.75964105	     -2.46685799
      1.44500000	     21.14865234	     -1.43768579	      6.76468925	      0.09484971	      0.88568182	     -0.02901033	     -3.25163126	      1.00773728	      9.11682363	      7.02185719	     -0.21678586	    -25.75050949	     29.39341474	    -36.63406845	     -0.58928604	     29.74813154	     -4.51644322	      6.65461591	    -41.94224409	     15.78482143	    -31.90502482	      5.62867438	     -2.44789993
      1.45000000	     21.08447840	     -1.34860481	      6.71328697	      0.10180441	      0.88448605	     -0.02835113	     -3.02800810	      0.96739285	      9.01510847	      7.05824327	     -0.18008906	    -24.88634692	     29.62107250	    -36.87452296	     -0.45807052	     29.25100492	     -4.98342898	      7.26799668	    -41.07885176	     16.19453376	    -31.78958730	      5.53568623	     -2.44053301
      1.45500000	     21.06157734	     -1.30362370	      6.66974697	      0.10882052	      0.88339174	     -0.02766451	     -2.83217761	      1.00732352	      8.87471228	      6.91903405	     -0.10306803	    -23.98624689	     29.84224798	    -37.15040893	     -0.38152840	     28.69366724	     -5.46287551	      7.86517000	    -40.14572395	     16.62778438	    -31.70716531	      5.49188998	     -2.42053630
      1.46000000	     21.04217630	     -1.29127950	      6.64940463	      0.11587895	      0.88238073	     -0.02699536	     -2.62313428	      1.10463136	      8.71091202	      6.60488658	     -0.00998793	    -23.07683488	     30.05997192	    -37.39911204	     -0.34384599	     28.11942304	     -6.00541017	      8.45065363	    -39.14708841	     17.09257023	    -31.61940284	      5.49337568	     -2.40227928
      1.46500000	     21.05102138	     -1.32118876	      6.63106567	      0.12298549	      0.88147055	     -0.02630412	     -2.43027345	      1.27187031	      8.53119580	      6.13500259	      0.04703364	    -22.17183256	     30.27594885	    -37.66371686	     -0.35291086	     27.50644378	     -6.56951924	      8.99934988	    -38.10570317	     17.58023990	    -31.55308547	      5.53963297	     -2.36707456
